<svg width="154" height="27" viewBox="0 0 154 27" fill="none" xmlns="http://www.w3.org/2000/svg">
<path d="M6.81231 17.2603C6.81231 18.1908 7.12246 18.9218 7.74277 19.4535C8.36308 19.9631 9.01662 20.2178 9.70339 20.2178C10.4123 20.2178 11.0658 20.0185 11.664 19.6197C12.2843 19.1988 12.7828 18.9883 13.1594 18.9883C13.824 18.9883 14.6326 19.5754 15.5852 20.7495C16.0948 21.392 16.3495 21.968 16.3495 22.4775C16.3495 23.3194 15.7403 24.1058 14.5218 24.8369C13.2591 25.7231 11.7083 26.1662 9.86954 26.1662C7.80923 26.1662 5.82646 25.424 3.92123 23.9397C3.01292 23.2308 2.27077 22.2892 1.69477 21.1151C1.11877 19.9188 0.830769 18.6117 0.830769 17.1938C0.830769 15.7538 1.11877 14.4578 1.69477 13.3058C2.27077 12.1317 3.01292 11.1902 3.92123 10.4812C5.76 9.01908 7.72062 8.288 9.80308 8.288C10.6449 8.288 11.4646 8.40984 12.2622 8.65354C13.0597 8.87508 13.6468 9.09661 14.0234 9.31815L14.5551 9.65046C14.9538 9.91631 15.264 10.1268 15.4855 10.2818C16.0615 10.7249 16.3495 11.2345 16.3495 11.8105C16.3495 12.3643 16.1169 12.9957 15.6517 13.7046C14.8542 14.9231 14.0898 15.5323 13.3588 15.5323C12.9378 15.5323 12.3397 15.2886 11.5643 14.8012C11.1655 14.4246 10.5895 14.2363 9.83631 14.2363C9.10523 14.2363 8.41846 14.5022 7.776 15.0338C7.13354 15.5655 6.81231 16.3077 6.81231 17.2603ZM28.005 8.55384C30.2204 8.55384 32.0591 9.39569 33.5213 11.0794C35.0056 12.7631 35.7477 14.8234 35.7477 17.2603V23.1089C35.7477 23.6185 35.7256 24.0062 35.6813 24.272C35.6591 24.5157 35.5594 24.8037 35.3822 25.136C35.0942 25.712 34.2413 26 32.8234 26C31.472 26 30.6302 25.712 30.2979 25.136C30.1207 24.8037 30.0099 24.5046 29.9656 24.2388C29.9434 23.9729 29.9324 23.5742 29.9324 23.0425V17.2271C29.9324 16.3188 29.6776 15.6098 29.168 15.1003C28.6585 14.5908 28.005 14.336 27.2074 14.336C26.432 14.336 25.7453 14.5797 25.1471 15.0671C24.549 15.5323 24.2056 16.064 24.117 16.6622V23.1089C24.117 23.6185 24.0948 24.0062 24.0505 24.272C24.0284 24.5157 23.9287 24.8037 23.7514 25.136C23.4634 25.712 22.6105 26 21.1927 26C19.797 26 18.944 25.7009 18.6339 25.1028C18.4788 24.7705 18.3791 24.4825 18.3348 24.2388C18.3127 23.9951 18.3016 23.6074 18.3016 23.0757V3.20369C18.3016 2.69415 18.3127 2.31754 18.3348 2.07384C18.3791 1.808 18.4788 1.52 18.6339 1.20984C18.944 0.61169 19.808 0.312613 21.2259 0.312613C22.6216 0.312613 23.4634 0.61169 23.7514 1.20984C23.9287 1.54215 24.0284 1.84123 24.0505 2.10707C24.0948 2.35077 24.117 2.72738 24.117 3.23692V10.5809C25.2247 9.22954 26.5207 8.55384 28.005 8.55384ZM37.9233 17.2603C37.9233 14.6018 38.8538 12.4086 40.7147 10.6806C42.5756 8.95261 44.7024 8.08861 47.095 8.08861C49.4876 8.08861 51.6033 8.95261 53.4421 10.6806C55.2809 12.3865 56.2002 14.5686 56.2002 17.2271C56.2002 19.0658 55.7239 20.7052 54.7713 22.1452C53.8187 23.5631 52.6556 24.6154 51.2821 25.3022C49.9307 25.9668 48.5239 26.2991 47.0618 26.2991C45.5996 26.2991 44.1818 25.9446 42.8082 25.2357C41.4347 24.5046 40.2716 23.4412 39.319 22.0455C38.3886 20.6277 37.9233 19.0326 37.9233 17.2603ZM44.8686 19.6529C45.5775 20.1846 46.2975 20.4505 47.0286 20.4505C47.7596 20.4505 48.4907 20.1735 49.2218 19.6197C49.9529 19.0658 50.3184 18.2462 50.3184 17.1606C50.3184 16.0751 49.975 15.2665 49.2882 14.7348C48.6015 14.2031 47.8593 13.9372 47.0618 13.9372C46.2642 13.9372 45.5221 14.2142 44.8353 14.768C44.1486 15.3218 43.8052 16.1415 43.8052 17.2271C43.8052 18.2905 44.1596 19.0991 44.8686 19.6529ZM80.0958 8.62031C81.5136 9.24061 82.2225 10.0049 82.2225 10.9132C82.2225 11.2898 82.0453 11.8991 81.6908 12.7409C81.3364 13.5606 81.0373 14.2806 80.7936 14.9009L77.1382 23.8068C76.8059 24.7815 76.2521 25.4683 75.4767 25.8671C75.1444 26.0222 74.7235 26.0997 74.2139 26.0997C73.7044 26.0997 73.2059 25.9114 72.7185 25.5348C72.2533 25.136 71.9432 24.7372 71.7881 24.3385L71.5222 23.7735C71.345 23.3305 70.6915 21.6025 69.5616 18.5895C69.3401 19.1212 69.0078 19.9963 68.5647 21.2148C68.1438 22.4111 67.8668 23.1643 67.7339 23.4745C67.6232 23.7625 67.5456 23.9618 67.5013 24.0726C67.4792 24.1612 67.3905 24.3385 67.2355 24.6043C67.0804 24.8702 66.9032 25.1028 66.7038 25.3022C66.1721 25.8338 65.5628 26.0997 64.8761 26.0997C64.1893 26.0997 63.6133 25.9114 63.1481 25.5348C62.6828 25.136 62.3727 24.7372 62.2176 24.3385L57.1998 12.1095C56.9782 11.4449 56.8675 11.0129 56.8675 10.8135C56.8675 9.92738 57.4988 9.22954 58.7616 8.72C59.4705 8.432 60.0465 8.288 60.4896 8.288C60.9327 8.288 61.2871 8.38769 61.553 8.58707C61.841 8.76431 62.0404 8.95261 62.1511 9.152C62.2619 9.32923 62.3505 9.51754 62.417 9.71692C62.7936 10.6031 63.5801 12.6855 64.7764 15.9643L66.737 10.5809C66.8699 10.1378 67.1136 9.75015 67.4681 9.41785C68.1105 8.77538 68.7641 8.45415 69.4287 8.45415C70.0933 8.45415 70.6582 8.63138 71.1235 8.98584C71.6108 9.34031 71.9432 9.69477 72.1204 10.0492L72.3862 10.6142C73.4939 13.7157 74.1475 15.488 74.3468 15.9311L76.3739 10.4148C76.9056 8.99692 77.7032 8.288 78.7665 8.288C79.1875 8.288 79.6305 8.39877 80.0958 8.62031ZM94.2843 8.52061C95.8129 8.52061 96.7101 8.94154 96.976 9.78338C97.1089 10.2043 97.1753 10.7582 97.1753 11.4449C97.1753 12.1317 97.0978 12.6855 96.9427 13.1065C96.8098 13.5052 96.5883 13.7932 96.2781 13.9705C95.8129 14.2363 95.1372 14.3692 94.251 14.3692L92.1243 14.2363V23.1422C92.1243 23.984 92.0135 24.6154 91.792 25.0363C91.5926 25.4351 91.2713 25.7009 90.8283 25.8338C90.4073 25.9668 89.8535 26.0332 89.1667 26.0332C88.48 26.0332 87.9261 25.9668 87.5052 25.8338C87.1064 25.6788 86.8184 25.4462 86.6412 25.136C86.464 24.8037 86.3532 24.5046 86.3089 24.2388C86.2867 23.9729 86.2756 23.5852 86.2756 23.0757V14.2695H85.0793C84.5033 14.2252 84.0935 14.0923 83.8498 13.8708C83.4289 13.4498 83.2184 12.6412 83.2184 11.4449C83.2184 9.62831 83.872 8.72 85.179 8.72H86.2756V6.95877C86.2756 5.25292 86.8849 3.71323 88.1033 2.33969C89.3218 0.943998 91.083 0.246152 93.387 0.246152C93.8966 0.246152 94.2732 0.268306 94.5169 0.312613C94.7827 0.334768 95.0818 0.43446 95.4141 0.61169C96.0123 0.89969 96.3113 1.75261 96.3113 3.17046C96.3113 4.23384 96.123 4.99815 95.7464 5.46338C95.4363 5.81784 94.9489 6.01723 94.2843 6.06154C94.0849 6.06154 93.7747 6.06154 93.3538 6.06154C92.5341 6.06154 92.1243 6.33846 92.1243 6.89231V8.72L94.2843 8.52061ZM115.566 15.1668C115.566 16.5182 115.223 17.5262 114.536 18.1908C113.871 18.8332 113.129 19.1545 112.31 19.1545H104.434C104.434 19.7748 104.799 20.2954 105.531 20.7163C106.262 21.1372 106.993 21.3477 107.724 21.3477C109.009 21.3477 110.017 21.2148 110.748 20.9489L111.113 20.816C111.645 20.5723 112.088 20.4505 112.443 20.4505C113.151 20.4505 113.761 20.9489 114.27 21.9458C114.558 22.544 114.702 23.0535 114.702 23.4745C114.702 25.4462 112.343 26.432 107.624 26.432C105.985 26.432 104.523 26.1551 103.238 25.6012C101.975 25.0252 100.989 24.272 100.28 23.3415C98.8844 21.5471 98.1865 19.5422 98.1865 17.3268C98.1865 14.5354 99.0838 12.3089 100.878 10.6474C102.695 8.96369 104.955 8.12184 107.657 8.12184C110.737 8.12184 112.996 9.20738 114.436 11.3785C115.19 12.5305 115.566 13.7932 115.566 15.1668ZM108.555 16.1305C109.396 16.1305 109.817 15.776 109.817 15.0671C109.817 14.5575 109.618 14.1477 109.219 13.8375C108.843 13.5274 108.289 13.3723 107.558 13.3723C106.849 13.3723 106.14 13.6714 105.431 14.2695C104.722 14.8455 104.367 15.4658 104.367 16.1305H108.555ZM134.616 15.1668C134.616 16.5182 134.272 17.5262 133.585 18.1908C132.921 18.8332 132.179 19.1545 131.359 19.1545H123.483C123.483 19.7748 123.849 20.2954 124.58 20.7163C125.311 21.1372 126.042 21.3477 126.773 21.3477C128.058 21.3477 129.066 21.2148 129.797 20.9489L130.163 20.816C130.694 20.5723 131.137 20.4505 131.492 20.4505C132.201 20.4505 132.81 20.9489 133.32 21.9458C133.608 22.544 133.752 23.0535 133.752 23.4745C133.752 25.4462 131.392 26.432 126.673 26.432C125.034 26.432 123.572 26.1551 122.287 25.6012C121.024 25.0252 120.038 24.272 119.329 23.3415C117.934 21.5471 117.236 19.5422 117.236 17.3268C117.236 14.5354 118.133 12.3089 119.928 10.6474C121.744 8.96369 124.004 8.12184 126.707 8.12184C129.786 8.12184 132.046 9.20738 133.486 11.3785C134.239 12.5305 134.616 13.7932 134.616 15.1668ZM127.604 16.1305C128.446 16.1305 128.867 15.776 128.867 15.0671C128.867 14.5575 128.667 14.1477 128.268 13.8375C127.892 13.5274 127.338 13.3723 126.607 13.3723C125.898 13.3723 125.189 13.6714 124.48 14.2695C123.771 14.8455 123.417 15.4658 123.417 16.1305H127.604ZM148.514 1.20984C148.691 0.877536 148.99 0.644921 149.411 0.511999C149.832 0.379075 150.386 0.312613 151.073 0.312613C151.782 0.312613 152.347 0.379075 152.768 0.511999C153.188 0.644921 153.476 0.877536 153.632 1.20984C153.809 1.54215 153.908 1.84123 153.931 2.10707C153.975 2.35077 153.997 2.72738 153.997 3.23692V23.0757C153.997 23.5852 153.975 23.9729 153.931 24.2388C153.908 24.4825 153.809 24.7594 153.632 25.0695C153.299 25.6677 152.358 25.9668 150.807 25.9668C149.278 25.9668 148.425 25.424 148.248 24.3385C147.318 25.4018 146.022 25.9335 144.36 25.9335C142.366 25.9335 140.55 25.0695 138.91 23.3415C137.271 21.5914 136.451 19.5643 136.451 17.2603C136.451 14.9342 137.271 12.896 138.91 11.1458C140.572 9.39569 142.388 8.52061 144.36 8.52061C146 8.52061 147.273 9.07446 148.182 10.1822V3.20369C148.182 2.69415 148.193 2.31754 148.215 2.07384C148.259 1.808 148.359 1.52 148.514 1.20984ZM143.131 19.2542C143.707 19.8523 144.404 20.1514 145.224 20.1514C146.044 20.1514 146.72 19.8523 147.251 19.2542C147.805 18.656 148.082 18.0025 148.082 17.2935C148.082 16.5625 147.816 15.8868 147.284 15.2665C146.775 14.6462 146.077 14.336 145.191 14.336C144.305 14.336 143.596 14.6462 143.064 15.2665C142.532 15.8646 142.267 16.5292 142.267 17.2603C142.267 17.9914 142.555 18.656 143.131 19.2542Z" fill="#FFFBDA"/>
</svg>
